<?xml version="1.0" encoding="utf-8"?>
<svg width="1536.00" height="1024.00" viewBox="0.00 0.00 1536.00 1024.00" xmlns="http://www.w3.org/2000/svg" xmlns:bx="https://boxy-svg.com"><defs/><g stroke-linecap="round" id="Layer_1_Copy" transform="matrix(1, 0, 0, 1, 21.71427, -18.024714)"><path d="M 263.42 463.91 L 343.83 672.13 L 298.47 672.65 L 280.95 625.75 L 200.03 625.75 L 184.57 672.65 L 139.21 673.17 L 217.04 463.91 Z M 241.38 505.66 L 213.03 593.28 L 272.82 592.76 Z" stroke-width="3.00" stroke-opacity="1.00" stroke-linejoin="round" style="fill: rgb(16, 62, 138);"/><path d="M468.12,568.88 C468.12,568.88 505.62,558.62 505.62,558.62 C505.62,558.62 490.88,513.62 434.25,514.88 C377.62,516.12 356.38,560.75 355.75,597.50 C355.12,634.25 385.30,677.93 432.43,678.27 C479.55,678.61 500.56,649.58 505.51,633.70 C468.80,622.60 469.14,622.95 469.14,622.95 C469.14,622.95 461.45,647.53 432.94,644.29 C404.42,641.05 393.16,622.80 394.53,593.78 C395.89,564.75 413.81,547.81 434.65,547.64 C455.48,547.47 465.75,564.49 468.12,568.88 Z" stroke-width="3.00" stroke-opacity="1.00" stroke-linejoin="round" style="fill: rgb(16, 62, 138);"/><path d="M 549.12 476.12 L 588.75 476.12 L 588.75 518.25 L 636.25 518.25 L 636.25 550.12 L 589 550.12 L 589 627.12 C 589 627.12 586.945 652.324 632.24 638.15 C 634.68 652.01 638.14 667.53 638.14 667.53 C 638.14 667.53 548.435 690.996 549.11 637.13 C 549.24 570.41 549.11 549.63 549.11 549.63 L 521.4 549.63 L 521.4 518.39 L 548.75 518.39 L 549.12 476.12 Z" stroke-width="3.00" stroke-opacity="1.00" stroke-linejoin="straight" style="fill: rgb(16, 62, 138); paint-order: fill;"/><path d="M671.75,518.30 C671.75,518.30 711.57,518.30 711.57,518.30 C711.57,518.30 711.57,672.15 711.57,672.15 C711.57,672.15 671.63,672.15 671.63,672.15 C671.63,672.15 671.75,518.30 671.75,518.30 Z" stroke-width="3.00" stroke-opacity="1.00" stroke-linejoin="round" style="fill: rgb(16, 62, 138);"/><path d="M689.78,454.78 C691.56,454.79 695.71,455.56 697.63,456.20 C699.69,456.93 702.77,458.67 704.45,460.06 C705.97,461.37 708.72,464.50 709.63,466.00 C710.50,467.52 711.90,471.42 712.29,473.37 C712.68,475.48 712.68,478.97 712.29,481.08 C711.90,483.03 710.50,486.93 709.63,488.45 C708.72,489.95 705.97,493.08 704.45,494.39 C702.77,495.78 699.69,497.52 697.63,498.25 C695.71,498.89 691.56,499.66 689.78,499.67 C688.00,499.66 683.85,498.89 681.94,498.25 C679.87,497.52 676.79,495.78 675.12,494.39 C673.59,493.08 670.84,489.95 669.94,488.45 C669.06,486.93 667.66,483.03 667.27,481.08 C666.88,478.97 666.88,475.48 667.27,473.37 C667.66,471.42 669.06,467.52 669.94,466.00 C670.84,464.50 673.59,461.37 675.12,460.06 C676.79,458.67 679.87,456.93 681.94,456.20 C683.85,455.56 688.00,454.79 689.78,454.78 Z" stroke-width="3.00" stroke-opacity="1.00" stroke-linejoin="round" style="fill: rgb(16, 62, 138);"/><path d="M736.88,518.44 C736.88,518.44 780.42,518.44 780.42,518.44 C780.42,518.44 819.87,633.19 819.87,633.19 C819.87,633.19 857.26,518.62 857.26,518.62 C857.26,518.62 899.78,518.62 899.78,518.62 C899.78,518.62 839.92,672.90 839.92,672.90 C839.92,672.90 798.80,672.90 798.80,672.90 C798.80,672.90 736.88,518.44 736.88,518.44 Z" stroke-width="3.00" stroke-opacity="1.00" stroke-linejoin="round" style="fill: rgb(16, 62, 138);"/><path d="M929.32,464.86 C929.32,464.86 1051.82,464.86 1051.82,464.86 C1051.82,464.86 1051.82,499.18 1051.82,499.18 C1051.82,499.18 968.64,499.18 968.64,499.18 C968.64,499.18 968.64,548.05 968.64,548.05 C968.64,548.05 1043.86,548.05 1043.86,548.05 C1043.86,548.05 1043.86,581.91 1043.86,581.91 C1043.86,581.91 969.09,581.91 969.09,581.91 C969.09,581.91 969.09,638.34 969.09,638.34 C969.09,638.34 1056.43,638.34 1056.43,638.34 C1056.43,638.34 1056.43,672.92 1056.43,672.92 C1056.43,672.92 929.28,672.92 929.28,672.92 C929.28,672.92 929.32,464.86 929.32,464.86 Z" stroke-width="3.00" stroke-opacity="1.00" stroke-linejoin="round" style="fill: rgb(255, 168, 7);"/><path d="M1124.63,464.43 C1124.63,464.43 1084.55,464.43 1084.55,464.43 C1084.55,464.43 1084.55,608.85 1084.55,608.85 C1084.55,608.85 1084.68,677.21 1164.50,677.24 C1242.82,677.27 1242.93,611.62 1242.81,610.71 C1242.81,610.71 1242.81,514.84 1242.81,514.84 C1242.81,514.84 1222.15,473.73 1209.55,464.84 C1206.03,464.64 1203.14,464.64 1203.14,464.64 C1203.14,464.64 1203.14,606.79 1203.14,606.79 C1203.14,606.79 1203.76,642.94 1163.88,641.70 C1124.01,640.46 1125.04,611.12 1124.63,605.96 C1124.21,600.79 1124.63,464.43 1124.63,464.43 Z" stroke-width="3.00" stroke-opacity="1.00" stroke-linejoin="round" style="fill: rgb(255, 168, 7);"/><path d="M1280.00,745.00 C1425.36,571.83 1235.00,266.50 931.00,324.00 C1296.83,339.17 1322.37,670.36 1280.00,745.00 Z" stroke-width="3.00" stroke-opacity="1.00" stroke-linejoin="round" style="fill: rgb(16, 62, 138);"/><path d="M1362.40,360.43 L1347.75,409.45 L1298.91,409.08 L1337.98,437.44 L1321.64,487.21 L1362.59,454.91 L1404.29,486.84 L1387.95,437.44 L1429.08,408.89 L1379.49,409.64 L1362.40,360.43 Z" stroke-width="3.00" stroke-opacity="1.00" stroke-linejoin="miter" style="fill: rgb(255, 168, 7);"/><path d="M1269.40,205.43 L1254.75,254.45 L1205.91,254.08 L1244.98,282.44 L1228.64,332.21 L1269.59,299.91 L1311.29,331.84 L1294.95,282.44 L1336.08,253.89 L1286.49,254.64 L1269.40,205.43 Z" stroke-width="3.00" stroke-opacity="1.00" stroke-linejoin="miter" style="fill: rgb(255, 168, 7);"/><path d="M1090.40,156.43 L1075.75,205.45 L1026.91,205.08 L1065.98,233.44 L1049.64,283.21 L1090.59,250.91 L1132.29,282.84 L1115.95,233.44 L1157.08,204.89 L1107.49,205.64 L1090.40,156.43 Z" stroke-width="3.00" stroke-opacity="1.00" stroke-linejoin="miter" style="fill: rgb(255, 168, 7);"/></g></svg>