<svg version="1.2" xmlns="http://www.w3.org/2000/svg" viewBox="0 0 252 144" width="252" height="144">
	<style>
		.s0 { fill: #000000 } 
		.s1 { fill: #ffffff } 
	</style>
	<g id="Layer 1">
		<path id="Forma 1" fill-rule="evenodd" class="s0" d="m102.35-131c33.09 0 58.14 5.67 72.79 11.34 14.65 5.67 13.47 22.45 13.47 22.45 0 0 17.72-12.99 35.92-5.91 18.19 7.09 23.86 27.42 24.81 34.74 0.94 7.33-2.37 31.19-3.78 33.56-1.42 2.36-8.51 20.09-38.05 18.19-29.54-1.89-48.92-17.48-48.92-17.48 0 0-10.87 6.14-31.66 11.81-20.8 5.67-55.53 4.97-71.37-1.65-15.83-6.62-40.17-39.47-37.33-63.33 4.01-32.38 51.04-43.72 84.12-43.72z"/>
		<path id="Forma 2" fill-rule="evenodd" class="s1" d="m286.51-31.26l-5.78 51.26 17.36 2.53-8.51 50.05 77.62 6.13 2.73-18.73 116.65 1.81 2.04-14.64 11.36 1.59 7.7-68.66-20.98-3.85-2.38 9.53-16.68-3.06 2.38-23.84-94.31-6.81-4.42 21.45z"/>
		<path id="Forma 3" fill-rule="evenodd" class="s1" d="m34.77 43.83l-7.03-38.15 43.5 22.09 20.74-26.77 8.7 22.75 16.07-6.02 2.34 7.7 23.09 3.34 2.34-25.43 17.06 22.76 23.09 4.68 26.44-17.4-7.03 28.44 33.46-25.43-12.71 43.69 17.73 18.89-20.08 8.36 14.39 35.14-25.76-12.72-12.05 15.73-13.72-6.03-22.08 0.34-10.71 6.69-11.38-12.71-20.41 28.77-6.02-29.11-10.71 10.37-1.34-11.37-49.52 13.05 6.02-21.08-41.49 5.68 10.71-19.74-9.71-8.36 17.07-5.69-26.77-19.41 24.09-1.34-8.36-9.37z"/>
	</g>
</svg>